<svg width="540" height="540" viewBox="0 0 540 540" fill="none" xmlns="http://www.w3.org/2000/svg">
<rect width="540" height="540" fill="white"/>
<path fill-rule="evenodd" clip-rule="evenodd" d="M272.066 39.0177C272.066 31.528 280.611 26 292.382 26C304.153 26 312.698 31.4389 312.61 38.8394C312.61 40.5335 312.174 42.1383 311.303 43.654C308.076 49.3604 302.932 60.5058 302.932 66.0338C302.932 71.2944 304.24 76.4657 306.856 81.4588C310.343 88.146 316.447 93.1391 323.858 95.4574L327.695 81.548C328.654 77.9815 331.357 75.0392 334.757 73.7018C336.152 73.1668 337.547 72.8993 338.943 72.8993C340.076 72.8993 341.122 73.0776 342.169 73.3451C345.308 74.2367 347.923 76.4658 349.406 79.4082C350.714 82.1722 350.975 85.2036 350.19 88.146L346.441 101.52C347.138 101.609 347.923 101.609 348.707 101.609C351.934 101.609 355.073 100.985 357.951 99.6479C365.1 96.3489 370.419 91.6233 373.907 85.4711C376.61 80.7455 377.656 68.4412 377.656 61.5757C377.743 60.3275 378.005 58.5442 378.877 56.9392C380.01 54.9777 382.8 51.7679 389.078 51.7679C393.351 51.7679 398.233 53.2836 402.855 56.0476C412.969 62.0215 417.677 71.2052 414.015 77.7141C413.231 79.2298 412.01 80.3889 410.528 81.2805C404.947 84.5795 395.095 91.6234 392.392 96.4381C389.427 101.699 388.032 107.762 388.206 114.36C388.381 119.888 390.299 125.327 393.699 129.874L403.291 119.888C405.558 117.569 408.435 116.321 411.661 116.321C414.713 116.321 417.677 117.57 419.857 119.799C421.95 121.849 423.171 124.613 423.345 127.556C423.606 130.944 422.386 134.332 420.032 136.739L410.44 146.726C414.451 149.757 419.247 151.451 424.042 151.719H425.873C432.239 151.719 437.906 150.203 442.876 147.171C447.497 144.318 454.211 134.154 457.524 128.091C458.135 127.11 459.181 125.683 460.751 124.702C462.233 123.811 463.889 123.365 465.633 123.365C471.301 123.365 477.579 128.18 482.113 135.848C484.554 140.038 486.036 144.586 486.385 148.598C486.821 153.948 485.077 158.227 481.589 160.367C480.194 161.259 478.625 161.705 476.881 161.705C470.342 161.794 458.396 163.042 453.775 165.895C449.415 168.659 445.753 172.404 442.876 177.219C439.04 183.639 437.993 191.663 439.911 199.42L453.513 195.676C454.56 195.408 455.519 195.23 456.565 195.23C458.832 195.23 461.012 195.943 462.93 197.191C465.372 198.796 467.116 201.293 467.9 204.146C468.598 206.821 468.336 209.763 467.203 212.26C465.72 215.47 462.93 217.877 459.617 218.769L446.364 222.424C448.979 228.933 453.601 234.283 459.53 237.403C464.238 239.989 469.208 241.238 474.265 241.238C479.671 241.238 490.57 235.977 496.412 232.589C497.546 231.965 499.115 231.34 500.946 231.34C508.27 231.34 513.676 240.078 513.676 252.115C513.676 264.152 508.358 272.89 500.946 272.89C499.29 272.89 497.72 272.444 496.238 271.553C490.658 268.254 479.758 262.993 474.352 262.993C468.249 262.993 462.233 264.865 456.565 268.61C452.293 271.463 448.892 275.654 446.8 280.647L460.053 284.124C463.977 285.194 467.028 288.137 468.249 291.971C469.034 294.2 469.034 296.518 468.511 298.747C467.726 301.868 465.808 304.453 463.105 306.058C461.274 307.217 459.268 307.752 457.176 307.752C456.129 307.752 455.17 307.663 454.211 307.396L440.871 303.829C439.301 314.796 443.05 325.763 451.246 332.718C452.642 333.877 454.037 334.858 455.519 335.749C460.14 338.513 472.173 339.583 478.886 339.583C480.02 339.672 481.764 339.94 483.333 340.832C489.698 344.666 490.047 354.919 484.205 365.351C479.758 373.197 473.481 378.101 467.726 378.101C466.069 378.101 464.413 377.656 463.017 376.853C461.535 376.051 460.402 374.802 459.53 373.287C456.216 367.58 449.328 357.505 444.707 354.741C439.911 351.888 434.331 350.461 428.315 350.461C427.343 350.461 426.371 350.538 425.33 350.62L425.089 350.639C420.555 350.996 416.282 352.69 412.533 355.543L422.299 365.262C424.914 367.937 426.222 371.771 425.699 375.516C425.35 378.101 424.217 380.33 422.473 382.203C420.293 384.432 417.329 385.769 414.103 385.769C410.964 385.769 408.086 384.61 405.906 382.381L396.054 372.573C392.566 377.477 390.561 383.273 390.648 389.247C390.648 395.577 392.217 401.284 395.095 406.277C397.885 411.002 407.912 417.868 413.754 421.256C414.713 421.88 416.108 422.95 417.067 424.555C420.903 431.064 416.369 440.247 406.255 446.4C401.547 449.253 396.577 450.858 392.217 450.858C386.114 450.858 383.411 447.737 382.277 445.865C381.405 444.438 380.969 442.833 380.969 441.05C380.882 434.363 379.661 422.148 376.871 417.422C374.43 413.32 371.117 409.754 366.931 406.99C362.397 403.958 356.991 402.354 351.324 402.354C349.667 402.354 348.098 402.443 346.441 402.71L350.19 416.174C351.062 419.294 350.626 422.682 349.057 425.447C347.575 428.121 345.046 430.083 342.169 430.885C341.122 431.153 339.989 431.331 338.943 431.331C336.676 431.331 334.496 430.618 332.578 429.37C330.223 427.765 328.479 425.357 327.695 422.593L323.858 408.862C313.221 412.607 305.373 421.702 303.542 432.847C303.281 434.541 303.106 436.324 303.106 438.108C303.106 443.636 308.251 454.781 311.564 460.755C312.175 461.914 312.785 463.519 312.785 465.391C312.785 472.881 304.24 478.409 292.469 478.409C280.698 478.409 272.153 472.97 272.153 465.391C272.153 463.697 272.589 462.092 273.461 460.576C276.687 454.87 281.831 443.725 281.831 438.197C281.831 432.936 280.524 427.765 277.908 422.772C274.42 416.085 268.317 411.091 260.905 408.773L257.069 422.683C256.023 426.427 253.232 429.459 249.57 430.707C248.35 431.153 247.129 431.331 245.821 431.331C244.687 431.331 243.641 431.153 242.595 430.885C239.979 430.083 237.712 428.478 236.143 426.16C234.137 423.217 233.527 419.562 234.486 416.085L238.235 402.71C237.451 402.621 236.666 402.621 235.882 402.621C232.83 402.621 229.865 403.245 227.075 404.493C219.75 407.703 214.257 412.518 210.77 418.759C208.067 423.485 207.02 435.789 207.02 442.655C206.933 443.814 206.672 445.597 205.8 447.202C204.666 449.164 201.876 452.373 195.598 452.373C191.326 452.373 186.443 450.858 181.822 448.094C177.636 445.597 174.149 442.476 171.969 439.088C169.004 434.63 168.568 430.083 170.574 426.427C171.359 424.912 172.579 423.752 174.062 422.861C179.642 419.562 189.495 412.518 192.198 407.703C195.162 402.443 196.557 396.38 196.383 389.782C196.208 384.254 194.29 378.815 190.89 374.267L181.299 384.254C179.119 386.572 176.154 387.82 172.754 387.82C169.702 387.731 166.912 386.483 164.732 384.343C162.901 382.47 161.68 380.063 161.331 377.388C160.808 373.732 162.029 370.077 164.558 367.491L174.149 357.505C170.138 354.473 165.342 352.779 160.547 352.512H158.716C152.351 352.512 146.683 354.028 141.713 357.059C137.092 359.912 130.378 370.077 127.065 376.14C126.454 377.121 125.408 378.547 123.839 379.528C122.356 380.42 120.7 380.865 118.956 380.865C113.288 380.865 107.011 376.051 102.477 368.383C100.035 364.192 98.5528 359.645 98.2041 355.633C97.7681 350.283 99.512 346.003 103 343.863C104.395 342.971 105.964 342.526 107.708 342.526C114.248 342.437 126.193 341.188 130.814 338.335C135.174 335.66 138.836 331.826 141.713 327.011C145.55 320.592 146.596 312.567 144.678 304.81L131.076 308.555C130.029 308.822 129.07 309.001 128.024 309.001C126.018 309.001 123.926 308.466 122.182 307.396C119.479 305.791 117.561 303.294 116.776 300.174C116.079 297.766 116.253 295.359 117.038 293.041C118.346 289.385 121.397 286.532 125.059 285.551L138.313 281.895C135.784 275.387 131.163 270.037 125.147 266.916C120.438 264.33 115.468 263.082 110.411 263.082C105.005 263.082 94.106 268.343 88.2641 271.731C87.1306 272.355 85.5612 272.979 83.7301 272.979C76.406 272.979 71 264.241 71 252.204C71 240.167 76.3188 231.43 83.7301 231.43C85.3868 231.43 86.9563 231.875 88.4385 232.767C94.0188 236.066 104.918 241.327 110.324 241.327C116.34 241.327 122.182 239.543 127.762 235.977C132.209 233.124 135.784 228.844 137.877 223.762L124.711 220.284C121.659 219.482 119.13 217.52 117.561 214.756C115.991 211.992 115.555 208.782 116.34 205.662C117.125 202.541 119.13 199.955 121.833 198.35C123.577 197.28 125.582 196.746 127.675 196.746C128.721 196.746 129.681 196.835 130.64 197.102L143.98 200.669C145.55 189.702 141.8 178.735 133.604 171.78C132.209 170.621 130.814 169.64 129.332 168.749C124.711 165.985 112.678 164.915 105.964 164.915C104.831 164.825 103.087 164.558 101.517 163.666C95.1524 159.832 94.8035 149.579 100.645 139.147C105.092 131.301 111.37 126.397 117.125 126.397C118.782 126.397 120.438 126.842 121.833 127.645C123.316 128.447 124.449 129.696 125.321 131.211C128.547 136.918 135.435 146.993 140.144 149.757C144.939 152.61 150.52 154.037 156.536 154.037C157.408 154.037 158.367 154.037 159.326 153.948C164.034 153.68 168.481 151.986 172.318 149.044L162.552 139.325C160.285 137.007 158.977 133.708 159.064 130.409C159.152 127.377 160.285 124.524 162.378 122.384C164.034 120.601 166.214 119.442 168.568 118.996C169.266 118.907 170.051 118.818 170.748 118.818C173.887 118.818 176.764 119.977 178.944 122.206L188.71 132.014C192.285 127.021 194.203 121.047 194.116 114.895C194.029 108.832 192.546 103.214 189.669 98.3996C186.879 93.674 176.939 86.8086 171.01 83.4205C170.051 82.7963 168.656 81.7263 167.696 80.1214C165.604 76.4657 165.953 71.8294 168.83 67.3713C171.01 63.9831 174.41 60.6841 178.508 58.1875C183.217 55.3343 188.187 53.7294 192.546 53.7294C198.65 53.7294 201.353 56.8501 202.486 58.7225C203.358 60.1491 203.794 61.754 203.794 63.5372C203.881 70.2244 205.102 82.4396 207.892 87.1652C210.246 91.1775 213.56 94.6548 217.571 97.4189C222.279 100.629 227.772 102.323 233.527 102.323C235.096 102.323 236.666 102.144 238.322 101.877L234.573 88.3244C233.614 84.8471 234.224 81.1022 236.317 78.1599C237.886 76.02 240.153 74.3259 242.682 73.6126C243.728 73.3451 244.862 73.1668 245.908 73.1668C247.565 73.1668 249.134 73.4343 250.617 74.1476C253.843 75.5742 256.197 78.4273 257.156 81.8155L260.992 95.5465C271.63 91.8017 279.477 82.7071 281.308 71.5618C281.57 69.8678 281.744 68.0845 281.744 66.3013C281.744 60.7732 276.6 49.6279 273.287 43.654C272.676 42.4949 272.066 40.8901 272.066 39.0177ZM292.007 370C355.737 370 407.401 317.17 407.401 252C407.401 186.83 355.737 134 292.007 134C228.278 134 176.614 186.83 176.614 252C176.614 317.17 228.278 370 292.007 370Z" fill="#F6C7DA"/>
<path fill-rule="evenodd" clip-rule="evenodd" d="M245.5 222C259.031 222 270 211.255 270 198C270 184.745 259.031 174 245.5 174C231.969 174 221 184.745 221 198C221 211.255 231.969 222 245.5 222ZM245.5 216C255.835 216 264 207.825 264 198C264 188.175 255.835 180 245.5 180C235.165 180 227 188.175 227 198C227 207.825 235.165 216 245.5 216Z" fill="#1D1D1D"/>
<path fill-rule="evenodd" clip-rule="evenodd" d="M295 330C295 318.954 304.178 310 315.5 310C326.822 310 336 318.954 336 330C336 341.046 326.822 350 315.5 350C304.178 350 295 341.046 295 330ZM301 330C301 322.407 307.351 316 315.5 316C323.649 316 330 322.407 330 330C330 337.593 323.649 344 315.5 344C307.351 344 301 337.593 301 330Z" fill="#1D1D1D"/>
<path fill-rule="evenodd" clip-rule="evenodd" d="M199 262C207.284 262 214 255.284 214 247C214 238.716 207.284 232 199 232C190.716 232 184 238.716 184 247C184 255.284 190.716 262 199 262ZM199 256C203.971 256 208 251.971 208 247C208 242.029 203.971 238 199 238C194.029 238 190 242.029 190 247C190 251.971 194.029 256 199 256Z" fill="#1D1D1D"/>
<path fill-rule="evenodd" clip-rule="evenodd" d="M343 282.5C343 275.596 348.596 270 355.5 270C362.404 270 368 275.596 368 282.5C368 289.404 362.404 295 355.5 295C348.596 295 343 289.404 343 282.5ZM349 282.5C349 278.91 351.91 276 355.5 276C359.09 276 362 278.91 362 282.5C362 286.09 359.09 289 355.5 289C351.91 289 349 286.09 349 282.5Z" fill="#1D1D1D"/>
<path fill-rule="evenodd" clip-rule="evenodd" d="M277.204 382.752C281.93 382.752 286.655 382.484 291.381 381.949C357.539 374.192 404.885 314.364 397.127 248.206C389.994 186.862 337.835 141.657 277.561 141.657C272.924 141.657 268.11 141.925 263.384 142.46C197.226 150.217 149.881 210.045 157.638 276.203C164.771 337.546 216.931 382.752 277.204 382.752ZM391.168 248.899L391.168 248.905C398.538 311.763 353.559 368.612 290.692 375.989C286.194 376.498 281.698 376.752 277.204 376.752C219.936 376.752 170.374 333.788 163.598 275.51L163.597 275.504C156.227 212.646 201.205 155.798 264.071 148.42C268.568 147.912 273.153 147.657 277.561 147.657C334.83 147.657 384.391 190.621 391.168 248.899Z" fill="#1D1D1D"/>
<path fill-rule="evenodd" clip-rule="evenodd" d="M256.608 49.0177C256.608 41.528 265.346 36 277.383 36C289.42 36 298.158 41.4389 298.068 48.8394C298.068 50.5335 297.623 52.1383 296.731 53.654C293.432 59.3604 288.171 70.5058 288.171 76.0338C288.171 81.2944 289.509 86.4657 292.184 91.4588C295.75 98.146 301.992 103.139 309.57 105.457L313.493 91.548C314.474 87.9815 317.238 85.0392 320.716 83.7018C322.142 83.1668 323.569 82.8993 324.995 82.8993C326.154 82.8993 327.224 83.0776 328.294 83.3451C331.504 84.2367 334.179 86.4658 335.695 89.4082C337.032 92.1722 337.3 95.2036 336.497 98.146L332.663 111.52C333.376 111.609 334.179 111.609 334.981 111.609C338.28 111.609 341.49 110.985 344.433 109.648C351.744 106.349 357.183 101.623 360.749 95.4711C363.513 90.7455 364.583 78.4412 364.583 71.5757C364.673 70.3275 364.94 68.5441 365.832 66.9392C366.991 64.9777 369.844 61.7679 376.264 61.7679C380.633 61.7679 385.626 63.2836 390.351 66.0476C400.694 72.0215 405.509 81.2052 401.764 87.7141C400.961 89.2298 399.713 90.3889 398.197 91.2805C392.491 94.5795 382.416 101.623 379.652 106.438C376.62 111.699 375.194 117.762 375.372 124.36C375.55 129.888 377.512 135.327 380.989 139.874L390.797 129.888C393.115 127.569 396.058 126.321 399.357 126.321C402.477 126.321 405.509 127.57 407.738 129.799C409.878 131.849 411.126 134.613 411.304 137.556C411.572 140.944 410.324 144.332 407.916 146.739L398.108 156.726C402.21 159.757 407.114 161.451 412.018 161.719H413.89C420.399 161.719 426.194 160.203 431.277 157.171C436.002 154.318 442.868 144.154 446.256 138.091C446.88 137.11 447.95 135.683 449.555 134.702C451.071 133.811 452.765 133.365 454.548 133.365C460.344 133.365 466.763 138.18 471.4 145.848C473.896 150.038 475.412 154.586 475.769 158.598C476.214 163.948 474.431 168.227 470.865 170.367C469.438 171.259 467.833 171.705 466.05 171.705C459.363 171.794 447.148 173.042 442.422 175.895C437.964 178.659 434.219 182.404 431.277 187.219C427.354 193.639 426.284 201.663 428.245 209.42L442.154 205.676C443.224 205.408 444.205 205.23 445.275 205.23C447.593 205.23 449.822 205.943 451.784 207.191C454.281 208.796 456.064 211.293 456.866 214.146C457.579 216.821 457.312 219.763 456.153 222.26C454.637 225.47 451.784 227.877 448.396 228.769L434.843 232.424C437.518 238.933 442.244 244.283 448.307 247.403C453.121 249.989 458.204 251.238 463.375 251.238C468.903 251.238 480.048 245.977 486.022 242.589C487.181 241.965 488.786 241.34 490.659 241.34C498.148 241.34 503.676 250.078 503.676 262.115C503.676 274.152 498.237 282.89 490.659 282.89C488.965 282.89 487.36 282.444 485.844 281.553C480.138 278.254 468.992 272.993 463.464 272.993C457.223 272.993 451.071 274.865 445.275 278.61C440.906 281.463 437.429 285.654 435.289 290.647L448.842 294.124C452.854 295.194 455.975 298.137 457.223 301.971C458.025 304.2 458.025 306.518 457.49 308.747C456.688 311.868 454.726 314.453 451.962 316.058C450.09 317.217 448.039 317.752 445.899 317.752C444.829 317.752 443.849 317.663 442.868 317.396L429.226 313.829C427.621 324.796 431.455 335.763 439.836 342.718C441.263 343.877 442.689 344.858 444.205 345.749C448.931 348.513 461.235 349.583 468.101 349.583C469.26 349.672 471.043 349.94 472.648 350.832C479.157 354.666 479.513 364.919 473.539 375.351C468.992 383.197 462.573 388.101 456.688 388.101C454.994 388.101 453.3 387.656 451.873 386.853C450.357 386.051 449.198 384.802 448.307 383.287C444.918 377.58 437.875 367.505 433.149 364.741C428.245 361.888 422.539 360.461 416.387 360.461C415.393 360.461 414.399 360.538 413.334 360.62L413.088 360.639C408.451 360.996 404.082 362.69 400.248 365.543L410.234 375.262C412.909 377.937 414.247 381.771 413.712 385.516C413.355 388.101 412.196 390.33 410.413 392.203C408.184 394.432 405.152 395.769 401.853 395.769C398.643 395.769 395.701 394.61 393.472 392.381L383.397 382.573C379.83 387.477 377.779 393.273 377.868 399.247C377.868 405.577 379.473 411.284 382.416 416.277C385.269 421.002 395.523 427.868 401.496 431.256C402.477 431.88 403.904 432.95 404.885 434.555C408.808 441.064 404.171 450.247 393.829 456.4C389.014 459.253 383.932 460.858 379.473 460.858C373.232 460.858 370.468 457.737 369.309 455.865C368.417 454.438 367.972 452.833 367.972 451.05C367.882 444.363 366.634 432.148 363.781 427.422C361.284 423.32 357.896 419.754 353.616 416.99C348.98 413.958 343.452 412.354 337.656 412.354C335.962 412.354 334.357 412.443 332.663 412.71L336.497 426.174C337.389 429.294 336.943 432.682 335.338 435.447C333.822 438.121 331.237 440.083 328.294 440.885C327.224 441.153 326.065 441.331 324.995 441.331C322.677 441.331 320.448 440.618 318.487 439.37C316.079 437.765 314.296 435.357 313.493 432.593L309.57 418.862C298.693 422.607 290.668 431.702 288.796 442.847C288.528 444.541 288.35 446.324 288.35 448.108C288.35 453.636 293.61 464.781 296.998 470.755C297.623 471.914 298.247 473.519 298.247 475.391C298.247 482.881 289.509 488.409 277.472 488.409C265.435 488.409 256.697 482.97 256.697 475.391C256.697 473.697 257.143 472.092 258.035 470.576C261.334 464.87 266.594 453.725 266.594 448.197C266.594 442.936 265.257 437.765 262.582 432.772C259.015 426.085 252.774 421.091 245.195 418.773L241.272 432.683C240.202 436.427 237.349 439.459 233.604 440.707C232.356 441.153 231.108 441.331 229.77 441.331C228.611 441.331 227.541 441.153 226.471 440.885C223.796 440.083 221.478 438.478 219.873 436.16C217.822 433.217 217.198 429.562 218.179 426.085L222.013 412.71C221.211 412.621 220.409 412.621 219.606 412.621C216.486 412.621 213.453 413.245 210.6 414.493C203.111 417.703 197.493 422.518 193.927 428.759C191.163 433.485 190.093 445.789 190.093 452.655C190.004 453.814 189.736 455.597 188.845 457.202C187.686 459.164 184.832 462.373 178.413 462.373C174.044 462.373 169.051 460.858 164.325 458.094C160.045 455.597 156.479 452.476 154.25 449.088C151.218 444.63 150.772 440.083 152.823 436.427C153.626 434.912 154.874 433.752 156.39 432.861C162.096 429.562 172.171 422.518 174.935 417.703C177.967 412.443 179.394 406.38 179.215 399.782C179.037 394.254 177.075 388.815 173.598 384.267L163.79 394.254C161.561 396.572 158.53 397.82 155.052 397.82C151.932 397.731 149.078 396.483 146.849 394.343C144.977 392.47 143.729 390.063 143.372 387.388C142.837 383.732 144.085 380.077 146.671 377.491L156.479 367.505C152.377 364.473 147.473 362.779 142.57 362.512H140.697C134.188 362.512 128.393 364.028 123.311 367.059C118.585 369.912 111.719 380.077 108.331 386.14C107.707 387.121 106.637 388.547 105.032 389.528C103.517 390.42 101.822 390.865 100.039 390.865C94.2437 390.865 87.824 386.051 83.1875 378.383C80.691 374.192 79.1752 369.645 78.8186 365.633C78.3728 360.283 80.156 356.003 83.7225 353.863C85.1491 352.971 86.754 352.526 88.5373 352.526C95.2244 352.437 107.44 351.188 112.165 348.335C116.623 345.66 120.368 341.826 123.311 337.011C127.234 330.592 128.304 322.567 126.342 314.81L112.433 318.555C111.363 318.822 110.382 319.001 109.312 319.001C107.261 319.001 105.121 318.466 103.338 317.396C100.574 315.791 98.6126 313.294 97.8101 310.174C97.0968 307.766 97.2752 305.359 98.0776 303.041C99.4151 299.385 102.536 296.532 106.281 295.551L119.833 291.895C117.247 285.387 112.522 280.037 106.37 276.916C101.555 274.33 96.4727 273.082 91.3013 273.082C85.7732 273.082 74.628 278.343 68.6541 281.731C67.495 282.355 65.8901 282.979 64.0177 282.979C56.5281 282.979 51 274.241 51 262.204C51 250.167 56.4389 241.43 64.0177 241.43C65.7118 241.43 67.3167 241.875 68.8324 242.767C74.5388 246.066 85.6841 251.327 91.2121 251.327C97.3643 251.327 103.338 249.543 109.045 245.977C113.592 243.124 117.247 238.844 119.387 233.762L105.924 230.284C102.803 229.482 100.218 227.52 98.6126 224.756C97.0077 221.992 96.5619 218.782 97.3643 215.662C98.1668 212.541 100.218 209.955 102.982 208.35C104.765 207.28 106.816 206.746 108.955 206.746C110.025 206.746 111.006 206.835 111.987 207.102L125.629 210.669C127.234 199.702 123.4 188.735 115.018 181.78C113.592 180.621 112.165 179.64 110.65 178.749C105.924 175.985 93.6195 174.915 86.754 174.915C85.5949 174.825 83.8117 174.558 82.2068 173.666C75.6979 169.832 75.3413 159.579 81.3151 149.147C85.8624 141.301 92.2821 136.397 98.1668 136.397C99.8609 136.397 101.555 136.842 102.982 137.645C104.497 138.447 105.656 139.696 106.548 141.211C109.847 146.918 116.891 156.993 121.706 159.757C126.61 162.61 132.316 164.037 138.468 164.037C139.359 164.037 140.341 164.037 141.321 163.948C146.136 163.68 150.683 161.986 154.606 159.044L144.62 149.325C142.302 147.007 140.965 143.708 141.054 140.409C141.143 137.377 142.302 134.524 144.442 132.384C146.136 130.601 148.365 129.442 150.772 128.996C151.486 128.907 152.288 128.818 153.002 128.818C156.211 128.818 159.154 129.977 161.383 132.206L171.369 142.014C175.025 137.021 176.986 131.047 176.897 124.895C176.808 118.832 175.292 113.214 172.35 108.4C169.497 103.674 159.332 96.8086 153.269 93.4205C152.288 92.7963 150.862 91.7263 149.881 90.1214C147.741 86.4657 148.098 81.8294 151.04 77.3713C153.269 73.9831 156.746 70.6841 160.937 68.1875C165.752 65.3343 170.834 63.7294 175.292 63.7294C181.533 63.7294 184.297 66.8501 185.457 68.7225C186.348 70.1491 186.794 71.754 186.794 73.5373C186.883 80.2244 188.131 92.4396 190.985 97.1652C193.392 101.178 196.78 104.655 200.882 107.419C205.696 110.629 211.314 112.323 217.198 112.323C218.803 112.323 220.408 112.144 222.102 111.877L218.268 98.3244C217.287 94.8471 217.912 91.1022 220.051 88.1599C221.656 86.02 223.975 84.3259 226.56 83.6126C227.63 83.3451 228.789 83.1668 229.859 83.1668C231.553 83.1668 233.158 83.4343 234.674 84.1476C237.973 85.5742 240.38 88.4273 241.361 91.8155L245.284 105.546C256.162 101.802 264.187 92.7071 266.059 81.5618C266.327 79.8678 266.505 78.0845 266.505 76.3013C266.505 70.7732 261.244 59.6279 257.856 53.654C257.232 52.4949 256.608 50.8901 256.608 49.0177ZM292.54 49.0177C292.54 44.9162 285.764 41.528 277.383 41.528C269.002 41.528 262.225 44.9162 261.958 49.1068C261.958 49.8201 262.314 50.6226 262.582 51.1576C262.582 51.1576 271.855 67.2067 271.855 76.3013C271.855 78.4412 271.676 80.4919 271.32 82.5426C268.734 97.2544 257.321 108.756 242.788 112.055C242.52 112.1 242.253 112.167 241.985 112.234C241.718 112.3 241.45 112.367 241.183 112.412L235.744 93.3312C235.209 91.4588 233.872 89.9431 232.178 89.2298C231.375 88.8731 230.483 88.6948 229.592 88.6948C229.057 88.6948 228.433 88.784 227.898 88.9624C226.382 89.319 225.223 90.2106 224.42 91.3697C223.261 92.8854 222.905 94.847 223.44 96.8086L228.879 115.889L228.522 115.978C224.777 117.227 220.854 117.851 217.02 117.851C210.244 117.851 203.467 115.978 197.672 112.055C193.035 108.845 189.112 104.833 186.17 100.018C181.533 92.1721 181.177 73.6264 181.177 73.6264C181.177 72.9131 180.998 72.1999 180.642 71.5757C179.75 69.9708 177.789 69.2574 175.292 69.2574C171.993 69.2574 167.802 70.5058 163.79 72.9132C156.568 77.1929 152.467 83.5234 154.606 87.0899C154.963 87.6248 155.676 88.1599 156.211 88.5165C156.211 88.5165 172.439 97.611 177.075 105.368C180.553 111.164 182.247 117.673 182.425 124.627C182.603 134.168 178.591 143.351 171.636 149.86L171.547 149.949L157.37 136.04C156.122 134.881 154.517 134.257 152.912 134.257C152.556 134.257 152.11 134.257 151.753 134.346C150.505 134.524 149.346 135.148 148.365 136.129C147.206 137.288 146.582 138.893 146.582 140.409C146.493 142.103 147.117 143.886 148.454 145.135L162.631 158.955L162.542 159.044C157.103 165.018 149.613 168.852 141.589 169.387C140.43 169.476 139.36 169.476 138.29 169.476C131.247 169.476 124.648 167.782 118.674 164.394C110.828 159.846 101.466 143.797 101.466 143.797C101.02 143.173 100.574 142.638 99.95 142.281C99.3259 141.925 98.6126 141.746 97.8993 141.746C94.2437 141.746 89.3397 145.669 85.8624 151.643C81.6718 158.865 81.1368 166.444 84.7033 168.495C85.2383 168.852 86.1299 169.03 86.754 169.03C86.754 169.03 105.3 169.03 113.146 173.577C114.929 174.647 116.623 175.806 118.228 177.144C129.73 186.684 133.832 202.466 129.463 216.821C129.463 216.865 129.44 216.932 129.418 216.999C129.396 217.066 129.374 217.133 129.374 217.177L110.204 212.184C109.669 212.095 109.134 212.006 108.599 212.006C107.44 212.006 106.37 212.363 105.389 212.898C103.962 213.7 102.892 215.127 102.447 216.821C102.001 218.515 102.357 220.209 103.16 221.636C104.051 223.062 105.389 224.132 107.083 224.578L126.253 229.571V229.66C124.47 238.309 119.298 245.888 111.809 250.524C105.389 254.536 98.4343 256.766 91.0338 256.766C82.0284 256.766 65.8901 247.493 65.8901 247.493C65.2659 247.047 64.5527 246.869 63.8394 246.869C59.7379 246.869 56.3497 253.645 56.3497 262.026C56.3497 270.407 59.7379 277.184 63.8394 277.184C64.5527 277.184 65.3551 276.827 65.8901 276.559C65.8901 276.559 81.9393 267.287 91.0338 267.287C97.186 267.287 103.16 268.892 108.688 271.745C117.872 276.47 124.291 285.208 126.52 295.284L126.61 295.551L107.44 300.633C105.3 301.168 103.784 302.773 103.071 304.646C102.625 305.894 102.536 307.142 102.892 308.48C103.338 310.174 104.408 311.511 105.835 312.314C106.816 312.938 107.885 313.205 109.045 313.205C109.58 313.205 110.115 313.205 110.65 313.027L129.73 307.945C130.087 308.836 130.354 309.728 130.622 310.619C133.921 320.338 133.118 331.127 127.769 339.865C124.47 345.304 120.101 349.851 114.662 353.061C106.816 357.697 88.2698 358.054 88.2698 358.054C87.5565 358.054 86.8432 358.232 86.2191 358.589C82.7417 360.729 83.3659 368.218 87.6457 375.44C91.123 381.325 96.1161 385.159 99.6826 385.159C100.485 385.159 101.198 384.981 101.822 384.624C102.357 384.267 102.892 383.554 103.249 383.019C103.249 383.019 112.344 366.792 120.101 362.155C126.164 358.5 133.029 356.805 140.34 356.805C140.697 356.805 141.054 356.828 141.41 356.85C141.767 356.872 142.124 356.895 142.48 356.895C150.772 357.34 158.53 361.085 164.147 367.148L164.236 367.237L150.327 381.325C148.9 382.752 148.276 384.713 148.543 386.586C148.722 388.012 149.346 389.261 150.416 390.33C151.664 391.579 153.18 392.203 154.785 392.203H154.874C156.568 392.203 158.173 391.579 159.421 390.33L173.33 376.243L173.42 376.332C180.018 382.306 184.119 390.776 184.387 399.693C184.654 407.182 183.049 414.226 179.394 420.556C174.846 428.403 158.797 437.765 158.797 437.765C158.173 438.211 157.638 438.656 157.281 439.28C155.141 442.847 159.421 449.177 166.643 453.368C170.656 455.686 174.757 456.845 177.967 456.845C180.553 456.845 182.603 456.043 183.495 454.438C183.852 453.903 184.03 453.011 184.03 452.387C184.03 452.387 184.03 433.842 188.577 425.995C192.946 418.595 199.633 412.978 207.925 409.411C211.492 407.895 215.326 407.093 219.16 407.093C222.37 407.093 225.49 407.628 228.522 408.609H228.611L223.172 427.689C222.637 429.562 222.994 431.523 224.064 433.039C224.866 434.198 226.025 435.09 227.541 435.536C228.165 435.714 228.789 435.803 229.324 435.803C230.038 435.803 230.751 435.625 231.375 435.447C233.247 434.822 234.852 433.217 235.477 431.167L240.915 412.086C241.361 412.175 241.807 412.287 242.253 412.398C242.699 412.51 243.145 412.621 243.59 412.71C253.576 414.939 262.314 421.181 267.129 430.186C270.161 435.892 271.766 441.955 271.766 448.286C271.766 457.291 262.493 473.43 262.493 473.43C262.047 474.054 261.869 474.767 261.869 475.48C261.869 479.582 268.645 482.97 277.026 482.97C285.407 482.97 292.184 479.582 292.184 475.48C292.184 474.767 291.827 473.965 291.56 473.43C291.56 473.43 282.287 457.38 282.287 448.286C282.287 446.146 282.465 444.095 282.822 442.045C285.407 427.333 296.82 415.831 311.354 412.532C311.621 412.487 311.889 412.42 312.156 412.354C312.423 412.287 312.691 412.22 312.958 412.175L318.397 431.256C318.843 432.772 319.824 434.02 321.072 434.822C322.053 435.536 323.301 435.892 324.55 435.892C325.085 435.892 325.709 435.803 326.244 435.625C327.849 435.179 329.186 434.02 329.988 432.683C330.791 431.167 331.148 429.383 330.613 427.689L325.174 408.609H325.263C329.097 407.271 333.109 406.647 337.121 406.647C343.809 406.647 350.407 408.52 356.113 412.264C360.928 415.474 365.029 419.486 367.972 424.48C372.608 432.326 372.965 450.872 372.965 450.872C372.965 451.585 373.143 452.298 373.5 452.922C374.391 454.527 376.353 455.24 378.849 455.24C382.148 455.24 386.339 453.992 390.351 451.585C397.573 447.305 401.675 440.975 399.535 437.408C399.178 436.873 398.465 436.338 397.93 435.981C397.93 435.981 381.703 426.887 377.066 419.13C373.5 413.156 371.806 406.469 371.716 399.336C371.627 389.974 375.639 381.058 382.505 374.638L382.594 374.549L396.771 388.458C398.019 389.617 399.624 390.241 401.229 390.241H401.318C402.923 390.241 404.528 389.617 405.776 388.369C406.757 387.388 407.381 386.14 407.559 384.802C407.827 382.841 407.203 380.879 405.687 379.363L391.51 365.454C391.599 365.454 391.599 365.365 391.599 365.365C396.86 359.48 404.171 355.736 412.018 355.111L412.019 355.111C413.267 355.022 414.515 354.933 415.762 354.933C422.806 354.933 429.404 356.627 435.378 360.015C443.224 364.563 452.586 380.612 452.586 380.612C453.032 381.236 453.478 381.771 454.102 382.128C454.726 382.484 455.44 382.662 456.153 382.662C459.809 382.662 464.712 378.739 468.19 372.765C472.38 365.543 472.915 357.965 469.349 355.914C468.814 355.557 467.922 355.379 467.298 355.379C467.298 355.379 448.752 355.379 440.906 350.832C439.123 349.762 437.429 348.603 435.824 347.265C424.322 337.725 420.221 321.943 424.59 307.588C424.59 307.543 424.612 307.477 424.634 307.41C424.656 307.343 424.679 307.276 424.679 307.231L443.849 312.224L443.85 312.225C444.384 312.314 444.919 312.403 445.453 312.403C446.613 312.403 447.682 312.046 448.663 311.511C450.09 310.619 451.16 309.282 451.606 307.588C451.962 306.429 451.873 305.181 451.516 304.021C450.803 302.06 449.198 300.366 447.058 299.831L427.889 294.838V294.749C429.761 286.278 434.665 278.789 441.976 274.152C448.485 269.962 455.707 267.643 463.197 267.643C472.202 267.643 488.34 276.916 488.34 276.916C488.965 277.362 489.678 277.54 490.391 277.54C494.493 277.54 497.881 270.764 497.881 262.383C497.881 254.002 494.493 247.225 490.391 247.225C489.678 247.225 488.875 247.582 488.34 247.849C488.34 247.849 472.291 257.122 463.197 257.122C457.045 257.122 451.071 255.517 445.543 252.664C436.359 247.938 429.939 239.201 427.71 229.125L427.621 228.858L446.791 223.776C448.663 223.241 450.09 221.992 450.892 220.298C451.516 219.05 451.606 217.534 451.249 216.018C450.803 214.503 449.822 213.165 448.574 212.363C447.593 211.649 446.345 211.293 445.097 211.293C444.562 211.293 444.027 211.293 443.492 211.471L424.411 216.553C424.055 215.662 423.787 214.77 423.52 213.879C420.221 204.16 421.023 193.371 426.373 184.633C429.672 179.194 434.041 174.647 439.48 171.437C447.326 166.801 465.872 166.444 465.872 166.444C466.585 166.444 467.298 166.266 467.922 165.909C471.4 163.769 470.776 156.28 466.496 149.058C463.018 143.173 458.025 139.339 454.459 139.339C453.656 139.339 452.943 139.517 452.319 139.874C451.784 140.231 451.249 140.944 450.892 141.479C450.892 141.479 441.798 157.706 434.041 162.343C427.978 165.998 421.112 167.692 413.801 167.692C413.444 167.692 413.088 167.67 412.732 167.648L412.73 167.648C412.374 167.626 412.017 167.603 411.661 167.603C403.369 167.158 395.612 163.413 389.995 157.35L389.905 157.261L403.815 143.173C405.152 141.835 405.687 140.052 405.598 138.269C405.509 136.753 404.885 135.327 403.726 134.168C402.477 132.919 400.872 132.295 399.267 132.295C397.663 132.295 396.058 132.919 394.809 134.168L380.9 148.255L380.811 148.166C374.213 142.192 370.111 133.722 369.844 124.806C369.576 117.316 371.181 110.272 374.837 103.942C379.384 96.0953 395.433 86.7333 395.433 86.7333C396.058 86.2875 396.593 85.8416 396.949 85.2175C399.089 81.651 394.809 75.3205 387.587 71.1299C383.575 68.8117 379.473 67.6526 376.264 67.6526C373.678 67.6526 371.627 68.455 370.736 70.0599C370.379 70.5949 370.201 71.4865 370.201 72.1107C370.201 72.1107 370.201 90.6564 365.653 98.5027C361.463 105.814 354.865 111.342 346.751 114.909C343.095 116.603 339.083 117.405 335.071 117.405C331.95 117.405 328.829 116.87 325.798 115.889H325.709L331.148 96.8086C331.593 95.2036 331.415 93.5988 330.702 92.1722C329.899 90.6564 328.562 89.4973 326.779 88.9624C326.154 88.784 325.53 88.6948 324.995 88.6948C324.282 88.6948 323.48 88.8731 322.766 89.1406C320.983 89.8539 319.467 91.3696 318.932 93.3312L313.493 112.412C313.048 112.323 312.602 112.211 312.156 112.1C311.71 111.988 311.264 111.877 310.819 111.788C300.832 109.559 292.095 103.317 287.28 94.3121C284.248 88.6057 282.643 82.5426 282.643 76.2121C282.643 67.2067 291.916 51.0684 291.916 51.0684C292.362 50.4443 292.54 49.731 292.54 49.0177Z" fill="#1D1D1D"/>
</svg>
